<svg width="24" height="24" viewBox="0 0 24 24" fill="none" xmlns="http://www.w3.org/2000/svg">
<path d="M20.3411 6.48389C21.4199 8.11455 21.9971 10.0257 22.0011 11.9809C22.0051 13.9361 21.4359 15.8496 20.3638 17.4847C19.2918 19.1198 17.7639 20.4048 15.9692 21.1806C14.1745 21.9564 12.1917 22.1891 10.2661 21.8499" stroke="white" stroke-width="2" stroke-linecap="round" stroke-linejoin="round"/>
<path d="M3.65906 17.5159C2.58025 15.8848 2.00336 13.9732 1.99977 12.0176C1.99618 10.0621 2.56606 8.14836 3.63887 6.51333C4.71169 4.8783 6.24036 3.59371 8.03572 2.81851C9.83108 2.04332 11.8143 1.81154 13.7401 2.15187" stroke="#4863F7" stroke-width="2" stroke-linecap="round" stroke-linejoin="round"/>
<path d="M12 15C13.6569 15 15 13.6569 15 12C15 10.3431 13.6569 9 12 9C10.3431 9 9 10.3431 9 12C9 13.6569 10.3431 15 12 15Z" stroke="white" stroke-width="2" stroke-linecap="round" stroke-linejoin="round"/>
<path d="M19 7C20.1046 7 21 6.10457 21 5C21 3.89543 20.1046 3 19 3C17.8954 3 17 3.89543 17 5C17 6.10457 17.8954 7 19 7Z" stroke="white" stroke-width="2" stroke-linecap="round" stroke-linejoin="round"/>
<path d="M5 21C6.10457 21 7 20.1046 7 19C7 17.8954 6.10457 17 5 17C3.89543 17 3 17.8954 3 19C3 20.1046 3.89543 21 5 21Z" stroke="#4863F7" stroke-width="2" stroke-linecap="round" stroke-linejoin="round"/>
</svg>
