<svg width="20" height="21" viewBox="0 0 20 21" fill="none" xmlns="http://www.w3.org/2000/svg">
<path d="M15.8334 5.5V17.1667C15.8334 17.6087 15.6578 18.0326 15.3453 18.3452C15.0327 18.6578 14.6088 18.8334 14.1667 18.8334H5.83341C5.39139 18.8334 4.96746 18.6578 4.6549 18.3452C4.34234 18.0326 4.16675 17.6087 4.16675 17.1667V5.5" stroke="white" stroke-linecap="round" stroke-linejoin="round"/>
<path d="M2.5 5.5H17.5" stroke="white" stroke-linecap="round" stroke-linejoin="round"/>
<path d="M6.66675 5.50008V3.83341C6.66675 3.39139 6.84234 2.96746 7.1549 2.6549C7.46746 2.34234 7.89139 2.16675 8.33341 2.16675H11.6667C12.1088 2.16675 12.5327 2.34234 12.8453 2.6549C13.1578 2.96746 13.3334 3.39139 13.3334 3.83341V5.50008" stroke="white" stroke-linecap="round" stroke-linejoin="round"/>
</svg>
